<!-- icon666.com - MILLIONS OF FREE VECTOR ICONS --><svg version="1.1" id="Capa_1" xmlns="http://www.w3.org/2000/svg" xmlns:xlink="http://www.w3.org/1999/xlink" x="0px" y="0px" viewBox="0 0 385.109 385.109" style="enable-background:new 0 0 385.109 385.109;" xml:space="preserve"><g><g><path d="M360.977,93.872c3.437-7.725,9.659-24.736,4.761-37.798c-6.159-16.424-22.011-28.809-36.874-28.809l-1.178-0.002 c-7.389-0.022-15.349-0.038-24.516,5.861c-10.687-3.586-29.086-5.94-46.332,10.266c-12.202,11.467-20.201,28.69-28.671,46.925 c-9.976,21.478-20.291,43.688-38.738,61.372c-31.343,30.046-63.697,37.295-97.95,44.969c-3.233,0.724-6.477,1.451-9.735,2.2 c-3.822,0.879-7.471,1.688-10.949,2.459c-31.332,6.947-52.032,11.537-56.747,38.336c-1.159,6.585-1.676,12.888-1.544,18.769 c-7.256,7.067-11.987,16.659-12.456,30.266c-0.5,14.512,2.884,25.634,10.057,33.059c5.713,5.915,13.459,9.041,22.398,9.041 c9.647,0,18.377-1.243,23.345-2.121c1.475,4.282,3.556,8.382,6.413,12.108c7.44,9.704,18.923,15.308,34.128,16.656 c3.111,0.275,6.687,0.419,10.671,0.419c20.843,0,52.762-3.941,86.569-13.568c33.384-9.506,80.065-27.874,112.863-61.393 c67.258-68.737,77.065-128.563,78.468-145.262C386.604,118.063,374.332,102.717,360.977,93.872z M327.66,37.265l1.203,0.002 c9.409,0,22.272,8.348,27.511,22.32c3.214,8.57-0.767,21.439-4.045,29.132c-8.526-4.674-32.776-14.737-55.224,6.357 c-4.517,4.244-8.458,9.277-12.06,14.859c0.414-1.633,0.532-3.363,0.31-5.117l-1.423-11.271c-0.254-2.018,1.118-3.862,3.124-4.198 l17.175-2.876c2.723-0.456,4.561-3.033,4.105-5.757c-0.409-2.444-2.526-4.175-4.925-4.175c-0.274,0-0.552,0.023-0.833,0.071 l-17.175,2.876c-2.601,0.436-4.911,1.567-6.765,3.174c4.185-8.221,8.039-15.404,11.799-21.144 C306.361,37.213,316.226,37.228,327.66,37.265z M23.897,241.385c3.557-20.215,17.817-23.377,49.063-30.306 c3.502-0.777,7.176-1.592,11.024-2.476c3.241-0.745,6.467-1.468,9.681-2.188c35.653-7.988,69.329-15.533,102.684-47.509 c19.804-18.984,31.005-43.101,40.888-64.378c8.051-17.333,15.655-33.706,26.449-43.85c8.151-7.66,16.556-10.178,24.087-10.178 c1.949,0,3.84,0.169,5.653,0.461c-3.873,4.013-7.756,9.008-11.732,15.076c-5.723,8.735-11.398,20.19-17.969,33.454 c-14.137,28.536-31.732,64.05-58.508,88.276c-34.948,31.62-107.667,50.23-142.614,59.173c-3.826,0.979-7.189,1.84-9.99,2.587 c-9.923,2.646-20.789,5.997-29.901,11.181C22.939,247.699,23.334,244.585,23.897,241.385z M274.012,94.8l1.423,11.27 c0.218,1.728-0.765,3.372-2.39,3.998l-8.313,3.201c-0.732,0.282-1.429,0.621-2.086,1.01c3.71-7.083,7.169-14.011,10.448-20.578 c0.284-0.569,0.566-1.132,0.846-1.694C273.871,92.921,273.892,93.855,274.012,94.8z M256.685,140.778 c0.087,1.599-0.849,3.084-2.329,3.696l-9.856,4.072c-1.054,0.435-2.03,0.987-2.916,1.635c5.19-7.687,9.938-15.593,14.335-23.454 c0.003,0.05,0.005,0.099,0.007,0.15L256.685,140.778z M236.047,162.591l0.927,9.665c0.196,2.038-1.241,3.841-3.271,4.106 l-10.512,1.369c-2.025,0.264-3.915,0.971-5.57,2.02c6.895-6.916,13.162-14.472,18.909-22.36 C236.051,159.038,235.875,160.797,236.047,162.591z M213.579,183.665c-1.145,1.679-1.928,3.623-2.238,5.72l-1.141,7.742 c-0.297,2.012-2.186,3.443-4.2,3.197l-10.883-1.346c-0.492-0.061-0.982-0.095-1.469-0.103c6.729-4.268,12.901-8.829,18.279-13.692 C212.482,184.68,213.032,184.176,213.579,183.665z M181.326,206.061c-0.399,0.733-0.736,1.511-1.002,2.328l-3.238,9.956 c-0.623,1.914-2.631,3.001-4.576,2.478l-14.099-3.807C166.313,213.638,174.03,209.99,181.326,206.061z M138.986,224.697 l-6.021,6.99c-0.753,0.874-1.822,1.354-3,1.309l-13.898-0.51C123.564,230.118,131.274,227.525,138.986,224.697z M91.352,239.783 l-3.614,4.696c-0.784,1.019-2.015,1.571-3.298,1.461l-12.406-1.005C77.835,243.435,84.351,241.722,91.352,239.783z M54.316,291.336c-1.417,8.053-2.26,17.91-0.813,27.583c-4.652,0.796-12.49,1.867-21,1.867c-4.298,0-10.425-1.039-15.207-5.988 c-5.143-5.324-7.651-14.234-7.254-25.766c0.802-23.256,16.292-31.952,44.614-39.598c-0.539,0.651-1.022,1.358-1.438,2.115 c-7.61,13.786-8.188,14.999-8.378,15.397c-1.189,2.493-0.132,5.477,2.361,6.665c2.494,1.189,5.477,0.131,6.665-2.361 c0.15-0.315,1.179-2.318,8.107-14.868c0.715-1.297,2.141-2.054,3.609-1.937l18.051,1.463c4.675,0.375,9.17-1.614,12.03-5.33 l5.425-7.05c0.743-0.966,1.905-1.513,3.132-1.471l25.378,0.931c4.216,0.157,8.195-1.586,10.943-4.776l9.396-10.907 c0.943-1.094,2.454-1.558,3.847-1.181l16.12,4.353c7.091,1.913,14.422-2.056,16.693-9.04l3.238-9.956 c0.558-1.716,2.267-2.804,4.055-2.579l10.883,1.346c7.367,0.909,14.238-4.321,15.32-11.664l1.141-7.741 c0.246-1.664,1.582-2.978,3.249-3.195l10.512-1.369c7.405-0.965,12.647-7.544,11.934-14.977l-0.927-9.664 c-0.16-1.664,0.772-3.212,2.317-3.851l9.857-4.072c5.399-2.231,8.813-7.65,8.495-13.483l-0.759-13.901 c-0.089-1.641,0.881-3.14,2.414-3.73l8.313-3.201c1.623-0.625,3.071-1.529,4.301-2.641c-4.412,7.817-8.403,16.41-12.504,25.24 c-9.976,21.479-20.292,43.689-38.739,61.373c-31.344,30.047-63.699,37.295-97.953,44.97c-3.232,0.723-6.475,1.45-9.732,2.199 c-3.823,0.878-7.472,1.688-10.95,2.459C79.73,259.948,59.031,264.538,54.316,291.336z M374.993,136.789 c-1.333,15.857-10.727,72.755-75.65,139.105c-57.387,58.649-166.313,74.745-202.074,71.575c-12.3-1.091-21.409-5.39-27.075-12.78 c-8.978-11.71-8.236-29.096-6.032-41.619c3.558-20.216,17.818-23.378,49.063-30.307c3.502-0.776,7.177-1.591,11.025-2.476 c3.239-0.745,6.465-1.468,9.678-2.188c35.654-7.988,69.331-15.532,102.687-47.509c19.805-18.985,31.007-43.102,40.889-64.379 c8.051-17.333,15.655-33.705,26.449-43.849c8.26-7.761,16.74-10.225,24.183-10.225c9.833,0,17.855,4.303,21.147,6.384 c0.753,0.475,1.576,0.958,2.514,1.475C357.691,103.247,376.782,115.508,374.993,136.789z"></path></g></g></svg>