<!-- icon666.com - MILLIONS OF FREE VECTOR ICONS --><svg id="Capa_1" enable-background="new 0 0 512 512" viewBox="0 0 512 512" xmlns="http://www.w3.org/2000/svg"><g><path d="m505.968 477.118-31.285-31.284c3.288-10.06 4.281-21.344 2.936-33.63-.449-4.116-4.139-7.086-8.27-6.639-4.118.451-7.09 4.154-6.639 8.271.769 7.03.63 13.591-.395 19.63l-143.303-143.3c44.446-7.454 109.297 33.242 134.912 92.038 1.654 3.798 6.075 5.535 9.871 3.881 3.798-1.654 5.535-6.073 3.881-9.871-2.551-5.857-5.54-11.668-8.916-17.378 5.796-12.579 16.746-28.321 9.37-45.984-4.534-10.865-16.24-18.318-28.633-26.21-9.9-6.303-20.137-12.822-24.878-20.309-3.714-5.87-4.112-15.063-4.535-24.795-.555-12.801-1.185-27.311-10.058-38.18-7.866-9.651-21.06-13.749-33.823-17.712-10.428-3.238-21.212-6.587-27.242-12.609-6.028-6.036-9.376-16.819-12.615-27.248-3.963-12.762-8.06-25.958-17.711-33.822-10.868-8.859-25.362-9.49-38.151-10.047-9.741-.424-18.94-.825-24.826-4.548-7.486-4.734-14.006-14.975-20.31-24.878-7.886-12.387-15.335-24.088-26.187-28.622-14.982-6.253-28.731.721-39.781 6.322-2.175 1.103-4.262 2.151-6.278 3.078-30.092-17.705-62.08-24.015-86.935-15.949l-31.294-31.289c-5.952-5.953-14.482-7.648-22.263-4.427-7.777 3.222-12.609 10.452-12.609 18.869v102.085c0 4.142 3.357 7.5 7.5 7.5s7.5-3.358 7.5-7.5v-102.085c0-3.271 2.343-4.594 3.349-5.011 1.009-.417 3.604-1.139 5.917 1.175l471.091 471.082c2.316 2.319 1.594 4.917 1.175 5.926-.418 1.008-1.743 3.353-5.017 3.353h-471.085c-2.994 0-5.43-2.436-5.43-5.43v-334.012c0-4.142-3.357-7.5-7.5-7.5s-7.5 3.358-7.5 7.5v334.012c0 11.265 9.165 20.429 20.43 20.429h471.084c8.418 0 15.65-4.831 18.874-12.609 3.225-7.779 1.531-16.312-4.421-22.273zm-271.773-271.767c1.673-5.156 2.739-10.613 3.201-16.304l56.691 15.862c6.27 1.752 11.253 6.735 13.005 13.007l15.862 56.68c-5.693.461-11.152 1.527-16.311 3.201zm-40.816-147.636c6.507 2.718 13.018 12.946 19.314 22.836 7.19 11.294 14.625 22.973 24.945 29.499 9.26 5.857 20.918 6.365 32.192 6.856 11.475.499 22.314.972 29.327 6.689 6.145 5.007 9.409 15.517 12.864 26.644 3.777 12.165 7.683 24.744 16.333 33.406 8.655 8.643 21.234 12.55 33.4 16.327 11.127 3.455 21.637 6.719 26.648 12.868 5.727 7.015 6.198 17.863 6.696 29.349.488 11.267.994 22.918 6.845 32.166 6.533 10.32 18.206 17.753 29.496 24.94 9.895 6.3 20.127 12.816 22.847 19.336 3.398 8.135-.546 16.688-5.102 25.714-5.653-7.716-12.007-15.133-18.961-22.087-27.735-27.735-61.614-44.67-91.65-47.505l-17.036-60.875c-3.154-11.288-12.125-20.26-23.412-23.413l-60.884-17.035c-2.831-30.036-19.761-63.914-47.492-91.647-7.033-7.033-14.467-13.356-22.128-18.948 9.042-4.563 17.609-8.521 25.758-5.12zm-14.237 34.674c17.992 17.992 31.229 38.622 38.28 59.659 4.948 14.764 6.425 28.886 4.404 40.936l-143.293-143.292c34.869-5.851 74.991 17.078 100.609 42.697z"></path><path d="m133.579 217.157c-6.429 0-12.473 2.504-17.019 7.049l-61.603 61.603c-9.383 9.384-9.383 24.653.001 34.037 9.406 9.405 24.63 9.406 34.036 0l61.602-61.603c4.547-4.546 7.05-10.59 7.05-17.019 0-6.428-2.504-12.473-7.049-17.018-4.546-4.546-10.589-7.049-17.018-7.049zm6.412 30.48-61.603 61.603c-3.541 3.543-9.281 3.544-12.824 0-3.536-3.536-3.536-9.289 0-12.825l61.603-61.603c1.713-1.712 3.989-2.656 6.412-2.656 2.422 0 4.699.943 6.412 2.656s2.657 3.99 2.657 6.412-.943 4.7-2.657 6.413z"></path><path d="m185.158 292.804-99.775 99.776c-9.403 9.403-9.407 24.63 0 34.036 9.384 9.384 24.653 9.385 34.037 0l99.775-99.775c9.404-9.402 9.409-24.63.001-34.037-9.384-9.385-24.654-9.383-34.038 0zm23.431 23.431-99.776 99.776c-3.535 3.536-9.288 3.535-12.825 0-1.713-1.712-2.655-3.99-2.655-6.412s.943-4.699 2.656-6.412l99.775-99.776c3.535-3.536 9.289-3.536 12.826 0 3.541 3.539 3.546 9.279-.001 12.824z"></path><path d="m185.104 440.023c0 6.429 2.504 12.473 7.049 17.018 4.693 4.693 10.855 7.038 17.019 7.038 6.163 0 12.327-2.347 17.019-7.038l61.603-61.603c9.382-9.384 9.382-24.652 0-34.036-9.385-9.384-24.655-9.385-34.038-.001l-61.602 61.603c-4.546 4.546-7.05 10.59-7.05 17.019zm17.656-6.412 61.602-61.603c3.538-3.537 9.291-3.535 12.825 0 3.536 3.535 3.536 9.289 0 12.825l-61.603 61.603c-3.535 3.536-9.288 3.535-12.825 0-1.713-1.712-2.656-3.99-2.656-6.412s.944-4.7 2.657-6.413z"></path></g></svg>