<!-- icon666.com - MILLIONS OF FREE VECTOR ICONS --><svg version="1.1" id="Capa_1" xmlns="http://www.w3.org/2000/svg" xmlns:xlink="http://www.w3.org/1999/xlink" x="0px" y="0px" viewBox="0 0 476.8 476.8" style="enable-background:new 0 0 476.8 476.8;" xml:space="preserve"><path d="M312.193,418.352c-3.227-21.115-2.643-75.68,2.158-96.709c2.718-11.901,2.729-40.523,2.459-76.703 c-0.05-6.585-0.096-12.805-0.096-18.074c0-7.002-0.738-13.911-1.999-20.648c-0.046-0.469-0.14-0.924-0.263-1.366 c-6.59-33.187-25.948-61.923-35.156-75.582l-0.404-0.6c-1.722-2.555-2.632-5.524-2.632-8.586V48.701 c3.186-3.235,5.158-7.667,5.158-12.555V17.911C281.417,8.035,273.382,0,263.506,0h-50.213c-9.876,0-17.911,8.035-17.911,17.911 v18.235c0,4.888,1.973,9.32,5.158,12.555v71.383c0,3.063-0.91,6.032-2.632,8.587l-1.339,1.98 c-9.757,14.419-28.193,41.684-34.385,74.499c-0.064,0.268-0.115,0.541-0.151,0.818c-1.229,6.757-1.948,13.74-1.948,20.897 c0,5.269-0.046,11.489-0.096,18.074c-0.27,36.18-0.259,64.802,2.459,76.703c4.801,21.03,5.385,75.595,2.158,96.709l-3.245,21.238 c-1.755,9.171,0.634,18.555,6.568,25.774c5.973,7.268,14.795,11.436,24.202,11.436h92.535c9.407,0,18.229-4.168,24.202-11.436 c5.935-7.22,8.323-16.604,6.568-25.774L312.193,418.352z M198.877,293.516l78.503-78.503h22.534c0.004,0.027,0.007,0.053,0.011,0.08 l-76.523,78.423H198.877z M176.134,293.516c-0.393-14.938-0.257-33.313-0.144-48.457c0.049-6.616,0.096-12.865,0.096-18.193 c0-4.001,0.274-7.955,0.753-11.854h77.914l-78.503,78.503H176.134z M300.754,237.153c0.016,2.55,0.036,5.195,0.056,7.906 c0.113,15.144,0.249,33.52-0.144,48.457h-54.909L300.754,237.153z M211.382,17.911c0-1.054,0.857-1.911,1.911-1.911h50.213 c1.054,0,1.911,0.857,1.911,1.911v18.235c0,1.053-0.857,1.91-1.911,1.91h-50.213c-1.054,0-1.911-0.857-1.911-1.91V17.911z M209.821,139.619l1.355-2.005c3.51-5.207,5.364-11.268,5.364-17.529V54.056h43.719v66.028c0,6.261,1.854,12.322,5.364,17.528 l0.405,0.602c7.738,11.478,23.212,34.44,30.589,60.798H180.018C187.021,173.323,201.684,151.642,209.821,139.619z M296.509,455.205 c-2.923,3.556-7.238,5.595-11.842,5.595h-92.535c-4.604,0-8.919-2.04-11.842-5.595s-4.088-8.185-3.196-12.7 c0.022-0.113,0.042-0.227,0.06-0.341l0.575-3.764H238.4c4.418,0,8-3.582,8-8s-3.582-8-8-8h-58.226l0.249-1.631 c3.489-22.836,2.85-79.799-2.377-102.688c-0.471-2.063-0.844-4.993-1.139-8.564h1.497c0.358,0.048,0.718,0.082,1.078,0.082 s0.72-0.033,1.078-0.082h119.333c-0.295,3.572-0.668,6.502-1.139,8.565c-5.227,22.889-5.866,79.852-2.377,102.688l0.249,1.631H289.6 c-4.418,0-8,3.582-8,8s3.582,8,8,8h9.471l0.575,3.764c0.018,0.114,0.037,0.228,0.06,0.341 C300.597,447.02,299.432,451.649,296.509,455.205z"></path></svg>