<!-- icon666.com - MILLIONS OF FREE VECTOR ICONS --><svg id="Capa_1" enable-background="new 0 0 512 512" viewBox="0 0 512 512" xmlns="http://www.w3.org/2000/svg"><g><path d="m219.434 449.623h-102.754c-5.522 0-10 4.477-10 10s4.478 10 10 10h102.754c5.522 0 10-4.477 10-10s-4.478-10-10-10z"></path><path d="m116.68 422.852h54.963c5.522 0 10-4.477 10-10s-4.478-10-10-10h-54.963c-5.522 0-10 4.477-10 10s4.477 10 10 10z"></path><path d="m473.172 497.047c-22.468-39.405-26.863-66.458-26.863-99.87 0-27.157.507-130.247-.001-178.487-.347-32.76 4.533-50.184 9.7-68.631 5.056-18.051 10.284-36.717 10.284-69.081v-70.978c0-5.523-4.478-10-10-10h-400.584c-5.522 0-10 4.477-10 10v70.978c0 32.364 5.229 51.029 10.284 69.081 5.167 18.447 10.047 35.871 9.7 68.632-.508 48.239-.001 151.329-.001 178.486 0 33.413-4.396 60.465-26.863 99.87-1.765 3.095-1.749 6.896.041 9.977s5.083 4.977 8.646 4.977h416.969c3.563 0 6.856-1.896 8.646-4.977 1.791-3.082 1.807-6.882.042-9.977zm-46.755-148.044c-30.972 9.688-64.577 11.274-96.362 4.599 4.729-13.727 7.852-29.214 8.99-45.826 9.996 2.356 20.196 3.523 30.373 3.523 19.722 0 39.345-4.388 57.22-12.921-.029 10.485-.193 43.857-.221 50.625zm-232.833-74.9c-34.588-14.526-74.407-13.586-108.242 2.495.014-14.873.091-31.152.277-50.563 38.839-12.192 80.391-11.592 118.73 1.661-5.401 13.705-9.133 29.41-10.765 46.407zm72.507-80.683c28.967 0 53.438 45.903 53.438 100.237s-24.472 100.237-53.438 100.237-53.438-45.903-53.438-100.237 24.472-100.237 53.438-100.237zm170.658-48.756c-5.318 18.988-10.817 38.622-10.439 74.237.234 22.233.329 40.397.347 56.833-26.102 15.461-57.906 19.637-87.227 11.497-1.975-64.322-33.476-113.811-73.339-113.811-21.005 0-39.686 13.747-52.951 36.16-41.078-14.727-85.622-16.238-127.611-4.392-.961-27.238-5.685-44.127-10.278-60.524-4.325-15.444-8.438-30.138-9.353-53.686h380.204c-.915 23.548-5.028 38.242-9.353 53.686zm9.543-124.664v50.978h-380.584v-50.978zm-382.099 472c17.674-35.565 21.498-63.266 21.498-94.823 0-27.207-.298-87.771-.326-97.962 32.556-19.203 73.55-20.539 107.303-3.527.641 66.449 32.657 118.207 73.422 118.207 22.65 0 42.598-15.981 55.967-41.579 15.465 3.558 31.353 5.336 47.252 5.336 19.258 0 38.522-2.605 57.035-7.777-.022 8.451-.036 17.493-.036 27.301 0 31.557 3.824 59.258 21.498 94.823h-383.613z"></path></g></svg>